<svg width="24" height="24" viewBox="0 0 24 24" fill="none" xmlns="http://www.w3.org/2000/svg">
  <path d="M12 2C6.48 2 2 6.48 2 12C2 17.52 6.48 22 12 22C17.52 22 22 17.52 22 12C22 6.48 17.52 2 12 2ZM16.64 8.8C16.49 10.38 15.84 14.22 15.51 15.99C15.37 16.74 15.09 16.99 14.82 17.02C14.21 17.07 13.75 16.61 13.16 16.22C12.23 15.61 11.71 15.23 10.8 14.63C9.75 13.94 10.43 13.56 10.97 13C11.11 12.85 13.56 10.63 13.61 10.43C13.61 10.4 13.62 10.29 13.55 10.23C13.48 10.16 13.38 10.18 13.31 10.2C12.21 10.92 7.7 13.67 7.7 13.67C6.72 13.97 5.84 13.9 5.09 13.69C4.27 13.46 3.62 13.23 3.62 13.23C3.62 13.23 4.63 12.04 15.66 7.46C16.19 7.27 16.67 7.74 16.64 8.8Z" fill="currentColor"/>
</svg>